<?xml version="1.0" encoding="UTF-8"?>
<svg id="Capa_1" data-name="Capa 1" xmlns="http://www.w3.org/2000/svg" viewBox="0 0 494 491.5">
  <defs>
    <style>
      .cls-1 {
        fill: #00d086;
      }

      .cls-2 {
        fill: #837ffa;
      }
    </style>
  </defs>
  <path class="cls-1" d="M57.78,320.08l-43.1-43.14c-16.58-16.59-16.57-43.48.02-60.06L218.07,13.68c15.59-15.57,40.85-15.56,56.42.02l116.63,116.73-78.68,78.62h0c-39.61-39.64-103.85-39.66-143.49-.06l-111.18,111.09Z"/>
  <path class="cls-2" d="M434.6,173.94l45.6,45.64c15.2,15.21,15.19,39.87-.02,55.07l-201.63,201.46c-17.93,17.92-46.99,17.9-64.91-.03l-112.39-112.48,78.68-78.62h0c39.61,39.64,103.85,39.66,143.49.06l111.18-111.09Z"/>
</svg>