<?xml version="1.0" encoding="UTF-8"?>
<svg id="Capa_1" data-name="Capa 1" xmlns="http://www.w3.org/2000/svg" viewBox="0 0 1869 534.5">
  <defs>
    <style>
      .cls-1 {
        fill: #00d086;
      }

      .cls-2 {
        fill: #837ffa;
      }

      .cls-3 {
        fill: #fff;
      }
    </style>
  </defs>
  <path class="cls-1" d="M69.78,340.08l-43.1-43.14c-16.58-16.59-16.57-43.48.02-60.06L230.07,33.68c15.59-15.57,40.85-15.56,56.42.02l116.63,116.73-78.68,78.62h0c-39.61-39.64-103.85-39.66-143.49-.06l-111.18,111.09Z"/>
  <path class="cls-2" d="M446.6,193.94l45.6,45.64c15.2,15.21,15.19,39.87-.02,55.07l-201.63,201.46c-17.93,17.92-46.99,17.9-64.91-.03l-112.39-112.48,78.68-78.62h0c39.61,39.64,103.85,39.66,143.49.06l111.18-111.09Z"/>
  <g>
    <path class="cls-3" d="M641.44,448.37V115.24h211.69v39.69h-162.55v106.32h152.62v39.69h-152.62v147.43h-49.14Z"/>
    <path class="cls-3" d="M973.14,452.62c-25.21,0-44.03-7.16-56.47-21.5-12.45-14.33-18.67-35.04-18.67-62.14V115.24h47.72v250.91c0,10.09,1.42,18.66,4.25,25.75,2.84,7.09,7.09,12.37,12.76,15.83,5.67,3.47,12.76,5.2,21.26,5.2,3.78,0,7.4-.15,10.87-.47,3.46-.31,6.77-.95,9.92-1.89l-.95,38.27c-5.36,1.25-10.56,2.2-15.59,2.83-5.04.63-10.09.95-15.12.95Z"/>
    <path class="cls-3" d="M1124.82,452.62c-18.59,0-34.1-3.47-46.54-10.4-12.45-6.93-21.74-17.32-27.88-31.19-6.14-13.86-9.21-31.02-9.21-51.5v-141.76h47.72v142.23c0,12.29,1.65,22.44,4.96,30.48,3.31,8.03,8.5,14.02,15.59,17.96,7.09,3.94,15.98,5.91,26.7,5.91,11.97,0,22.52-2.67,31.66-8.03,9.13-5.35,16.22-12.99,21.26-22.92,5.04-9.92,7.56-21.65,7.56-35.2v-130.42h47.72v230.59h-46.31v-50.56h6.14c-6.31,17.65-16.38,31.19-30.24,40.64-13.87,9.45-30.24,14.18-49.14,14.18Z"/>
    <path class="cls-3" d="M1280.74,448.37l105.37-130.89v23.63l-99.23-123.33h55.76l70.41,89.78h-17.01l70.41-89.78h55.76l-99.23,122.38v-21.26l105.37,129.47h-56.7l-75.6-95.45h16.07l-75.13,95.45h-56.23Z"/>
    <path class="cls-3" d="M1559.52,164.38v-49.61h55.76v49.61h-55.76ZM1563.78,448.37v-230.59h47.72v230.59h-47.72Z"/>
    <path class="cls-3" d="M1759.4,452.62c-12.29,0-24.26-1.11-35.91-3.31-11.66-2.2-22.37-5.35-32.13-9.45-9.77-4.09-18.43-9.13-25.99-15.12l13.7-32.13c7.87,5.36,16.22,10,25.04,13.94,8.82,3.94,18.03,6.85,27.64,8.74,9.61,1.89,18.97,2.83,28.12,2.83,16.69,0,29.3-2.99,37.8-8.98,8.51-5.98,12.76-14.01,12.76-24.1,0-8.19-2.83-14.57-8.5-19.14-5.67-4.56-14.18-8.11-25.52-10.63l-44.89-8.98c-19.54-4.09-34.34-11.34-44.42-21.74-10.08-10.4-15.12-23.63-15.12-39.69,0-14.49,3.94-27.09,11.81-37.8,7.87-10.71,18.9-18.97,33.08-24.81,14.18-5.83,30.55-8.74,49.14-8.74,10.71,0,21.1,1.11,31.19,3.31,10.08,2.21,19.61,5.36,28.59,9.45,8.98,4.1,16.61,9.3,22.92,15.59l-13.7,32.13c-5.99-5.35-12.84-9.92-20.55-13.7-7.72-3.78-15.67-6.69-23.86-8.74-8.19-2.05-16.38-3.07-24.57-3.07-16.7,0-29.22,3.07-37.57,9.21-8.35,6.14-12.52,14.41-12.52,24.81,0,7.88,2.52,14.34,7.56,19.37,5.04,5.04,12.91,8.67,23.62,10.87l44.89,8.98c20.47,4.1,35.99,11.03,46.54,20.79,10.55,9.77,15.83,23,15.83,39.69,0,14.49-3.94,27.1-11.81,37.8-7.88,10.71-18.98,18.83-33.31,24.33-14.34,5.51-30.95,8.27-49.85,8.27Z"/>
  </g>
</svg>